# 3ds Max Wavefront OBJ Exporter v0.97b - (c)2007 guruware
# File Created: 26.11.2014 23:42:00

#
# object Box001
#

v  8.6212 10.5364 8.2095
v  5.7280 15.3465 5.4324
v  11.5437 10.5211 -0.0003
v  -0.0086 15.3471 -0.0519
v  7.1765 15.3468 -0.0003
v  0.0000 -0.0000 0.0000
v  -8.6212 10.5364 8.2095
v  0.0000 10.5348 11.5843
v  -11.5437 10.5211 -0.0003
v  -7.1765 15.3468 -0.0003
v  -5.7280 15.3465 5.4324
v  0.0000 15.3471 7.9403
v  8.6212 10.5364 -8.2102
v  5.7280 15.3465 -5.4330
v  0.0000 10.5348 -11.5843
v  -8.6212 10.5364 -8.2102
v  -5.7280 15.3465 -5.4330
v  0.0000 15.3471 -7.9403
# 18 vertices

vn -0.0000 -1.0000 0.0000
vn 0.1920 -0.0335 0.9808
vn 0.0000 -0.0619 0.9981
vn 0.7755 0.6314 0.0000
vn 0.7342 0.5547 0.3916
vn 0.6803 0.5832 0.4439
vn 0.6803 0.5832 0.4439
vn 0.7415 0.6710 0.0000
vn 0.7755 0.6314 0.0000
vn 0.0001 1.0000 0.0000
vn 0.0001 1.0000 -0.0000
vn 0.0001 1.0000 0.0001
vn 0.0001 1.0000 0.0001
vn 0.0000 1.0000 0.0001
vn 0.0001 1.0000 0.0000
vn 0.1859 0.3625 0.9133
vn 0.0000 0.3541 0.9352
vn 0.0000 -0.0619 0.9981
vn 0.0000 -0.0619 0.9981
vn 0.1920 -0.0335 0.9808
vn 0.1859 0.3625 0.9133
vn 0.6067 -0.6657 0.4344
vn 0.6067 -0.6657 0.4344
vn 0.6067 -0.6657 0.4344
vn -0.0000 -1.0000 0.0000
vn 0.0000 -0.0619 0.9981
vn -0.1920 -0.0335 0.9808
vn -0.7755 0.6314 0.0000
vn -0.7415 0.6710 0.0000
vn -0.6803 0.5832 0.4439
vn -0.6803 0.5832 0.4439
vn -0.7342 0.5547 0.3916
vn -0.7755 0.6314 0.0000
vn -0.1859 0.3625 0.9133
vn -0.1920 -0.0335 0.9808
vn 0.0000 -0.0619 0.9981
vn 0.0000 -0.0619 0.9981
vn 0.0000 0.3541 0.9352
vn -0.1859 0.3625 0.9133
vn -0.6067 -0.6657 0.4344
vn -0.6067 -0.6657 0.4344
vn -0.6067 -0.6657 0.4344
vn -0.0000 -1.0000 0.0000
vn -0.0000 -0.0619 -0.9981
vn 0.1919 -0.0335 -0.9808
vn 0.7755 0.6314 0.0000
vn 0.7415 0.6710 0.0000
vn 0.6803 0.5832 -0.4439
vn 0.6803 0.5832 -0.4439
vn 0.7342 0.5547 -0.3916
vn 0.7755 0.6314 0.0000
vn 0.1859 0.3625 -0.9133
vn 0.1919 -0.0335 -0.9808
vn -0.0000 -0.0619 -0.9981
vn -0.0000 -0.0619 -0.9981
vn 0.0000 0.3541 -0.9352
vn 0.1859 0.3625 -0.9133
vn 0.6067 -0.6657 -0.4344
vn 0.6067 -0.6657 -0.4344
vn 0.6067 -0.6657 -0.4344
vn -0.0000 -1.0000 0.0000
vn -0.1919 -0.0335 -0.9808
vn -0.0000 -0.0619 -0.9981
vn -0.7755 0.6314 0.0000
vn -0.7342 0.5547 -0.3916
vn -0.6803 0.5832 -0.4439
vn -0.6803 0.5832 -0.4439
vn -0.7415 0.6710 0.0000
vn -0.7755 0.6314 0.0000
vn -0.1859 0.3625 -0.9133
vn 0.0000 0.3541 -0.9352
vn -0.0000 -0.0619 -0.9981
vn -0.0000 -0.0619 -0.9981
vn -0.1919 -0.0335 -0.9808
vn -0.1859 0.3625 -0.9133
vn -0.6067 -0.6657 -0.4344
vn -0.6067 -0.6657 -0.4344
vn -0.6067 -0.6657 -0.4344
vn -0.0001 1.0000 0.0000
vn -0.0001 1.0000 0.0000
vn -0.0001 1.0000 0.0000
vn -0.0000 1.0000 0.0001
vn -0.0000 1.0000 0.0001
vn -0.0000 1.0000 0.0001
vn -0.0001 1.0000 0.0000
vn -0.0001 1.0000 0.0000
vn -0.0001 1.0000 0.0000
vn -0.0000 1.0000 -0.0001
vn -0.0000 1.0000 -0.0001
vn -0.0000 1.0000 -0.0001
vn 0.0001 1.0000 0.0000
vn 0.0001 1.0000 0.0000
vn 0.0001 1.0000 0.0000
vn 0.0000 1.0000 -0.0001
vn 0.0000 1.0000 -0.0001
vn 0.0000 1.0000 -0.0001
# 96 vertex normals

vt 0.7143 0.2901 0.0000
vt 0.9178 0.0964 0.0000
vt 0.7143 0.0167 0.0000
vt 0.9868 0.2901 0.0000
vt 0.4352 0.4307 0.0000
vt 0.5764 0.6013 0.0000
vt 0.4407 0.6507 0.0000
vt 0.3739 0.5550 0.0000
vt 0.5108 0.0964 0.0000
vt 0.3009 0.7027 0.0000
vt 0.4419 0.2901 0.0000
vt 0.7143 0.5635 0.0000
vt 0.9178 0.4839 0.0000
vt 0.2443 0.5467 0.0000
vt 0.2000 0.4250 0.0000
vt 0.5108 0.4839 0.0000
vt 0.0235 0.5805 0.0000
vt 0.1504 0.6363 0.0000
vt 0.1607 0.7526 0.0000
vt 0.0251 0.8020 0.0000
vt 0.5780 0.8228 0.0000
vt 0.4511 0.7670 0.0000
vt 0.4014 0.9783 0.0000
vt 0.3571 0.8566 0.0000
vt 0.1662 0.9726 0.0000
vt 0.2275 0.8483 0.0000
# 26 texture coords

g Box001
s 2
f 6/1/1 1/2/2 8/3/3 
s 16
f 5/7/4 2/8/5 1/5/6 
f 1/5/7 3/6/8 5/7/9 
s 32
f 4/10/10 12/14/11 2/8/12 
f 2/8/13 5/7/14 4/10/15 
s 2
f 2/8/16 12/14/17 8/15/18 
f 8/15/19 1/5/20 2/8/21 
s off
f 3/4/22 1/2/23 6/1/24 
s 2
f 6/1/25 8/3/26 7/9/27 
s 16
f 10/19/28 9/20/29 7/17/30 
f 7/17/31 11/18/32 10/19/33 
s 2
f 11/18/34 7/17/35 8/15/36 
f 8/15/37 12/14/38 11/18/39 
s off
f 9/11/40 6/1/41 7/9/42 
s 2
f 6/1/43 15/12/44 13/13/45 
s 16
f 5/7/46 3/6/47 13/21/48 
f 13/21/49 14/22/50 5/7/51 
s 2
f 14/22/52 13/21/53 15/23/54 
f 15/23/55 18/24/56 14/22/57 
s off
f 3/4/58 6/1/59 13/13/60 
s 2
f 6/1/61 16/16/62 15/12/63 
s 16
f 10/19/64 17/26/65 16/25/66 
f 16/25/67 9/20/68 10/19/69 
s 2
f 17/26/70 18/24/71 15/23/72 
f 15/23/73 16/25/74 17/26/75 
s off
f 9/11/76 16/16/77 6/1/78 
f 11/18/79 12/14/80 4/10/81 
f 4/10/82 10/19/83 11/18/84 
f 4/10/85 18/24/86 17/26/87 
f 17/26/88 10/19/89 4/10/90 
f 14/22/91 18/24/92 4/10/93 
f 4/10/94 5/7/95 14/22/96 
# 32 faces

#
# object Plane001
#

v  -10.0000 0.0000 -0.0000
v  25.0000 0.0000 -0.0000
v  60.0000 0.0000 -0.0000
v  95.0000 0.0000 -0.0000
v  130.0000 0.0000 -0.0000
v  -10.0000 0.0000 -0.0000
v  25.0000 0.0000 -0.0000
v  60.0000 0.0000 -0.0000
v  95.0000 0.0000 -0.0000
v  130.0000 0.0000 -0.0000
v  -10.0000 0.0000 -0.0000
v  25.0000 0.0000 -0.0000
v  60.0000 0.0000 -0.0000
v  95.0000 0.0000 -0.0000
v  130.0000 0.0000 -0.0000
v  -10.0000 0.0000 -0.0000
v  25.0000 0.0000 -0.0000
v  60.0000 0.0000 -0.0000
v  95.0000 0.0000 -0.0000
v  130.0000 0.0000 -0.0000
v  -10.0000 0.0000 -0.0000
v  25.0000 0.0000 -0.0000
v  60.0000 0.0000 -0.0000
v  95.0000 0.0000 -0.0000
v  130.0000 0.0000 -0.0000
# 25 vertices

vn 1.0000 0.0000 -0.0000
vn 1.0000 0.0000 -0.0000
vn 1.0000 0.0000 -0.0000
vn 1.0000 0.0000 -0.0000
vn 1.0000 0.0000 -0.0000
vn 1.0000 0.0000 -0.0000
vn 1.0000 0.0000 -0.0000
vn 1.0000 0.0000 -0.0000
vn 1.0000 0.0000 -0.0000
vn 1.0000 0.0000 -0.0000
vn 1.0000 0.0000 -0.0000
vn 1.0000 0.0000 -0.0000
vn 1.0000 0.0000 -0.0000
vn 1.0000 0.0000 -0.0000
vn 1.0000 0.0000 -0.0000
vn 1.0000 0.0000 -0.0000
vn 1.0000 0.0000 -0.0000
vn 1.0000 0.0000 -0.0000
vn 1.0000 0.0000 -0.0000
vn 1.0000 0.0000 -0.0000
vn 1.0000 0.0000 -0.0000
vn 1.0000 0.0000 -0.0000
vn 1.0000 0.0000 -0.0000
vn 1.0000 0.0000 -0.0000
vn 1.0000 0.0000 -0.0000
vn 1.0000 0.0000 -0.0000
vn 1.0000 0.0000 -0.0000
vn 1.0000 0.0000 -0.0000
vn 1.0000 0.0000 -0.0000
vn 1.0000 0.0000 -0.0000
vn 1.0000 0.0000 -0.0000
vn 1.0000 0.0000 -0.0000
vn 1.0000 0.0000 -0.0000
vn 1.0000 0.0000 -0.0000
vn 1.0000 0.0000 -0.0000
vn 1.0000 0.0000 -0.0000
vn 1.0000 0.0000 -0.0000
vn 1.0000 0.0000 -0.0000
vn 1.0000 0.0000 -0.0000
vn 1.0000 0.0000 -0.0000
vn 1.0000 0.0000 -0.0000
vn 1.0000 0.0000 -0.0000
vn 1.0000 0.0000 -0.0000
vn 1.0000 0.0000 -0.0000
vn 1.0000 0.0000 -0.0000
vn 1.0000 0.0000 -0.0000
vn 1.0000 0.0000 -0.0000
vn 1.0000 0.0000 -0.0000
vn 1.0000 0.0000 -0.0000
vn 1.0000 0.0000 -0.0000
vn 1.0000 0.0000 -0.0000
vn 1.0000 0.0000 -0.0000
vn 1.0000 0.0000 -0.0000
vn 1.0000 0.0000 -0.0000
vn 1.0000 0.0000 -0.0000
vn 1.0000 0.0000 -0.0000
vn 1.0000 0.0000 -0.0000
vn 1.0000 0.0000 -0.0000
vn 1.0000 0.0000 -0.0000
vn 1.0000 0.0000 -0.0000
vn 1.0000 0.0000 -0.0000
vn 1.0000 0.0000 -0.0000
vn 1.0000 0.0000 -0.0000
vn 1.0000 0.0000 -0.0000
vn 1.0000 0.0000 -0.0000
vn 1.0000 0.0000 -0.0000
vn 1.0000 0.0000 -0.0000
vn 1.0000 0.0000 -0.0000
vn 1.0000 0.0000 -0.0000
vn 1.0000 0.0000 -0.0000
vn 1.0000 0.0000 -0.0000
vn 1.0000 0.0000 -0.0000
vn 1.0000 0.0000 -0.0000
vn 1.0000 0.0000 -0.0000
vn 1.0000 0.0000 -0.0000
vn 1.0000 0.0000 -0.0000
vn 1.0000 0.0000 -0.0000
vn 1.0000 0.0000 -0.0000
vn 1.0000 0.0000 -0.0000
vn 1.0000 0.0000 -0.0000
vn 1.0000 0.0000 -0.0000
vn 1.0000 0.0000 -0.0000
vn 1.0000 0.0000 -0.0000
vn 1.0000 0.0000 -0.0000
vn 1.0000 0.0000 -0.0000
vn 1.0000 0.0000 -0.0000
vn 1.0000 0.0000 -0.0000
vn 1.0000 0.0000 -0.0000
vn 1.0000 0.0000 -0.0000
vn 1.0000 0.0000 -0.0000
vn 1.0000 0.0000 -0.0000
vn 1.0000 0.0000 -0.0000
vn 1.0000 0.0000 -0.0000
vn 1.0000 0.0000 -0.0000
vn 1.0000 0.0000 -0.0000
vn 1.0000 0.0000 -0.0000
# 96 vertex normals

vt 0.0000 0.0000 0.0000
vt 0.2500 0.0000 0.0000
vt 0.5000 0.0000 0.0000
vt 0.7500 0.0000 0.0000
vt 1.0000 0.0000 0.0000
vt 0.0000 0.0000 0.0000
vt 0.2500 0.0000 0.0000
vt 0.5000 0.0000 0.0000
vt 0.7500 0.0000 0.0000
vt 1.0000 0.0000 0.0000
vt 0.0000 0.0000 0.0000
vt 0.2500 0.0000 0.0000
vt 0.5000 0.0000 0.0000
vt 0.7500 0.0000 0.0000
vt 1.0000 0.0000 0.0000
vt 0.0000 0.2500 0.0000
vt 0.2500 0.2500 0.0000
vt 0.5000 0.2500 0.0000
vt 0.7500 0.2500 0.0000
vt 1.0000 0.2500 0.0000
vt 0.0000 0.5000 0.0000
vt 0.2500 0.5000 0.0000
vt 0.5000 0.5000 0.0000
vt 0.7500 0.5000 0.0000
vt 1.0000 0.5000 0.0000
vt 0.0000 0.7500 0.0000
vt 0.2500 0.7500 0.0000
vt 0.5000 0.7500 0.0000
vt 0.7500 0.7500 0.0000
vt 1.0000 0.7500 0.0000
vt 0.0000 1.0000 0.0000
vt 0.2500 1.0000 0.0000
vt 0.5000 1.0000 0.0000
vt 0.7500 1.0000 0.0000
vt 1.0000 1.0000 0.0000
# 35 texture coords

g Plane001
s 1
f 24/27/97 19/27/98 25/27/99 
f 20/27/100 25/27/101 19/27/102 
f 25/27/103 20/27/104 26/27/105 
f 21/27/106 26/27/107 20/27/108 
f 26/27/109 21/27/110 27/27/111 
f 22/27/112 27/27/113 21/27/114 
f 27/27/115 22/27/116 28/27/117 
f 23/27/118 28/27/119 22/27/120 
f 29/27/121 24/27/122 30/27/123 
f 25/27/124 30/27/125 24/27/126 
f 30/27/127 25/27/128 31/27/129 
f 26/27/130 31/27/131 25/27/132 
f 31/27/133 26/27/134 32/27/135 
f 27/27/136 32/27/137 26/27/138 
f 32/27/139 27/27/140 33/27/141 
f 28/27/142 33/27/143 27/27/144 
f 34/27/145 29/27/146 35/27/147 
f 30/27/148 35/27/149 29/27/150 
f 35/27/151 30/27/152 36/27/153 
f 31/27/154 36/27/155 30/27/156 
f 36/27/157 31/27/158 37/27/159 
f 32/27/160 37/27/161 31/27/162 
f 37/27/163 32/27/164 38/27/165 
f 33/27/166 38/27/167 32/27/168 
f 39/27/169 34/27/170 40/27/171 
f 35/27/172 40/27/173 34/27/174 
f 40/27/175 35/27/176 41/27/177 
f 36/27/178 41/27/179 35/27/180 
f 41/27/181 36/27/182 42/27/183 
f 37/27/184 42/27/185 36/27/186 
f 42/27/187 37/27/188 43/27/189 
f 38/27/190 43/27/191 37/27/192 
# 32 faces

