# This file uses centimeters as units for non-parametric coordinates.

g default
v -1.168455 -5.791664 0.000000
v 1.178134 -5.789702 0.000000
v -1.178134 5.789702 0.000000
v 1.168455 5.791664 0.000000
v 0.004840 -4.780953 1.173295
v 0.004840 -4.780953 -1.173295
v -0.004840 6.800412 1.173295
v -0.004840 6.800412 -1.173295
vt 0.000000 0.000000
vt 1.000000 0.000000
vt 1.000000 1.000000
vt 0.000000 1.000000
vt 0.000000 0.000000
vt 1.000000 0.000000
vt 1.000000 1.000000
vt 0.000000 1.000000
vn 0.000000 0.000000 1.000000
vn 0.000000 0.000000 1.000000
vn 0.000000 0.000000 1.000000
vn 0.000000 0.000000 1.000000
vn 1.000000 0.000835 0.000000
vn 1.000000 0.000835 0.000000
vn 1.000000 0.000835 0.000000
vn 1.000000 0.000835 0.000000
s off
g polySurface1
f 1/1/1 2/2/2 4/3/3 3/4/4
f 5/5/5 6/6/6 8/7/7 7/8/8
