# 3ds Max Wavefront OBJ Exporter v0.97b - (c)2007 guruware
# File Created: 24.11.2014 21:00:17

mtllib Torch.mtl

#
# object Cylinder001
#

v  -0.4448 0.1947 0.7326
v  -0.7069 1.8892 1.1865
v  -1.3919 1.8892 -0.0001
v  -0.8678 0.1947 -0.0001
v  0.4012 0.1947 0.7326
v  0.6633 1.8892 1.1865
v  0.8242 0.1947 -0.0001
v  1.3483 1.8892 -0.0001
v  0.4012 0.1947 -0.7327
v  0.6633 1.8892 -1.1866
v  -0.4448 0.1947 -0.7327
v  -0.7069 1.8892 -1.1866
v  -1.4564 16.9380 -0.0001
v  -0.7391 16.9380 1.2423
v  -0.7137 27.5035 1.1983
v  -1.4055 27.5035 -0.0001
v  0.6955 16.9380 1.2423
v  0.6701 27.5035 1.1983
v  1.4128 16.9380 -0.0001
v  1.3619 27.5035 -0.0001
v  0.6955 16.9380 -1.2424
v  0.6701 27.5035 -1.1984
v  -0.7391 16.9380 -1.2424
v  -0.7137 27.5035 -1.1984
v  -0.7422 35.0517 1.2476
v  -1.4625 35.0517 -0.0001
v  0.6986 35.0517 1.2476
v  1.4189 35.0517 -0.0001
v  0.6986 35.0517 -1.2478
v  -0.7422 35.0517 -1.2478
v  -1.4664 38.1006 2.5021
v  -2.9111 38.1006 -0.0001
v  1.4229 38.1006 2.5021
v  2.8675 38.1006 -0.0001
v  1.4229 38.1006 -2.5023
v  -1.4664 38.1006 -2.5023
v  -1.2526 38.6757 2.1318
v  -2.4834 38.6757 -0.0001
v  1.2090 38.6757 2.1318
v  2.4398 38.6757 -0.0001
v  1.2090 38.6757 -2.1319
v  -1.2526 38.6757 -2.1319
v  -0.5774 49.6018 0.9622
v  0.5338 49.6018 0.9622
v  1.0894 49.6018 -0.0001
v  -0.5774 49.6018 -0.9624
v  0.5338 49.6018 -0.9624
v  -1.1330 49.6018 -0.0001
v  -1.3872 48.5861 2.3649
v  -2.7526 48.5861 -0.0001
v  -2.7818 45.2568 -0.0001
v  -1.4018 45.2568 2.3902
v  1.3436 48.5861 2.3649
v  1.3582 45.2568 2.3902
v  2.7090 48.5861 -0.0001
v  2.7382 45.2568 -0.0001
v  1.3436 48.5861 -2.3651
v  1.3582 45.2568 -2.3903
v  -1.3872 48.5861 -2.3650
v  -1.4018 45.2568 -2.3903
v  -1.3309 41.8821 2.6256
v  -2.6400 41.8821 -0.0001
v  1.2873 41.8821 2.6256
v  2.5964 41.8821 -0.0001
v  1.2873 41.8821 -2.6257
v  -1.3309 41.8821 -2.6257
# 66 vertices

vn -0.4777 -0.2955 0.8274
vn -0.4947 -0.1450 0.8569
vn -0.9894 -0.1450 0.0000
vn -0.9553 -0.2955 0.0000
vn 0.4777 -0.2955 0.8274
vn 0.4947 -0.1450 0.8569
vn 0.9553 -0.2955 -0.0000
vn 0.9894 -0.1450 -0.0000
vn 0.4777 -0.2955 -0.8274
vn 0.4947 -0.1450 -0.8569
vn -0.4777 -0.2955 -0.8274
vn -0.4947 -0.1450 -0.8569
vn -1.0000 0.0003 0.0000
vn -0.5000 0.0003 0.8660
vn -0.5000 -0.0014 0.8660
vn -1.0000 -0.0014 0.0000
vn 0.5000 0.0003 0.8660
vn 0.5000 -0.0014 0.8660
vn 1.0000 0.0003 -0.0000
vn 1.0000 -0.0014 -0.0000
vn 0.5000 0.0003 -0.8660
vn 0.5000 -0.0014 -0.8660
vn -0.5000 0.0003 -0.8660
vn -0.5000 -0.0014 -0.8660
vn -0.4853 -0.2403 0.8407
vn -0.9707 -0.2403 0.0000
vn 0.4853 -0.2403 0.8407
vn 0.9707 -0.2403 -0.0000
vn 0.4853 -0.2403 -0.8407
vn -0.4853 -0.2403 -0.8407
vn -0.4982 0.0849 0.8629
vn -0.9964 0.0849 0.0000
vn 0.4982 0.0849 0.8629
vn 0.9964 0.0849 -0.0000
vn 0.4982 0.0849 -0.8629
vn -0.4982 0.0849 -0.8629
vn -0.4879 0.2803 0.8267
vn -0.9482 0.3177 -0.0071
vn 0.4930 0.2901 0.8203
vn 0.9482 0.3177 0.0071
vn 0.4879 0.2803 -0.8267
vn -0.4930 0.2901 -0.8203
vn 0.0000 -1.0000 -0.0000
vn 0.0000 1.0000 -0.0000
vn -0.4509 0.4323 0.7809
vn -0.9017 0.4323 0.0000
vn -0.9999 -0.0083 0.0068
vn -0.5136 0.0198 0.8578
vn 0.4509 0.4323 0.7809
vn 0.5073 0.0290 0.8613
vn 0.9017 0.4323 -0.0000
vn 0.9999 -0.0083 -0.0068
vn 0.4509 0.4323 -0.7809
vn 0.5136 0.0198 -0.8578
vn -0.4509 0.4323 -0.7809
vn -0.5073 0.0290 -0.8613
vn -0.2656 0.8472 0.4601
vn -0.5313 0.8472 0.0000
vn 0.2656 0.8472 0.4601
vn 0.5313 0.8472 -0.0000
vn 0.2656 0.8472 -0.4601
vn -0.2656 0.8472 -0.4601
vn -0.5053 -0.0390 0.8620
vn -0.9990 -0.0449 0.0007
vn 0.5043 -0.0533 0.8619
vn 0.9990 -0.0449 -0.0007
vn 0.5053 -0.0390 -0.8620
vn -0.5043 -0.0533 -0.8619
# 68 vertex normals

vt 0.0526 0.0888 0.0000
vt 0.0790 0.1181 0.0000
vt 0.0577 0.1376 0.0000
vt 0.0353 0.1051 0.0000
vt 0.0702 0.0711 0.0000
vt 0.0986 0.0984 0.0000
vt 0.0873 0.0530 0.0000
vt 0.1176 0.0781 0.0000
vt 0.1027 0.0352 0.0000
vt 0.1361 0.0565 0.0000
vt 0.1135 0.0176 0.0000
vt 0.1534 0.0322 0.0000
vt 0.0337 0.1561 0.0000
vt 0.0179 0.1165 0.0000
vt 0.2977 0.3778 0.0000
vt 0.3208 0.3565 0.0000
vt 0.4903 0.5255 0.0000
vt 0.4668 0.5465 0.0000
vt 0.3434 0.3340 0.0000
vt 0.5128 0.5032 0.0000
vt 0.3650 0.3106 0.0000
vt 0.5342 0.4799 0.0000
vt 0.3860 0.2864 0.0000
vt 0.5541 0.4557 0.0000
vt 0.4077 0.2624 0.0000
vt 0.5738 0.4317 0.0000
vt 0.2747 0.3996 0.0000
vt 0.4432 0.5669 0.0000
vt 0.6066 0.6521 0.0000
vt 0.5762 0.6785 0.0000
vt 0.6371 0.6218 0.0000
vt 0.6660 0.5900 0.0000
vt 0.6911 0.5586 0.0000
vt 0.7077 0.5282 0.0000
vt 0.5466 0.6967 0.0000
vt 0.6518 0.7124 0.0000
vt 0.6081 0.7488 0.0000
vt 0.6913 0.6730 0.0000
vt 0.7285 0.6315 0.0000
vt 0.7631 0.5865 0.0000
vt 0.7866 0.5304 0.0000
vt 0.5536 0.7759 0.0000
vt 0.6594 0.7226 0.0000
vt 0.6162 0.7613 0.0000
vt 0.7002 0.6812 0.0000
vt 0.7388 0.6384 0.0000
vt 0.7762 0.5942 0.0000
vt 0.8065 0.5461 0.0000
vt 0.5709 0.7951 0.0000
vt 0.7467 0.3354 0.0000
vt 0.6949 0.3055 0.0000
vt 0.6431 0.3354 0.0000
vt 0.6949 0.4251 0.0000
vt 0.6431 0.3952 0.0000
vt 0.7467 0.3952 0.0000
vt 0.2408 0.7412 0.0000
vt 0.2408 0.6844 0.0000
vt 0.2899 0.6561 0.0000
vt 0.3391 0.7412 0.0000
vt 0.3391 0.6844 0.0000
vt 0.2899 0.7696 0.0000
vt 0.8184 0.8666 0.0000
vt 0.7844 0.9082 0.0000
vt 0.7224 0.8681 0.0000
vt 0.7612 0.8218 0.0000
vt 0.8546 0.8280 0.0000
vt 0.8019 0.7780 0.0000
vt 0.8912 0.7900 0.0000
vt 0.8433 0.7357 0.0000
vt 0.9309 0.7539 0.0000
vt 0.8874 0.6941 0.0000
vt 0.9821 0.7287 0.0000
vt 0.9359 0.6554 0.0000
vt 0.7616 0.9605 0.0000
vt 0.6860 0.9174 0.0000
vt 0.8497 0.8905 0.0000
vt 0.8219 0.9240 0.0000
vt 0.8828 0.8548 0.0000
vt 0.9166 0.8199 0.0000
vt 0.9486 0.7906 0.0000
vt 0.9775 0.7779 0.0000
vt 0.8105 0.9535 0.0000
vt 0.7095 0.7709 0.0000
vt 0.6646 0.8169 0.0000
vt 0.7481 0.7305 0.0000
vt 0.7917 0.6838 0.0000
vt 0.8363 0.6369 0.0000
vt 0.8746 0.5934 0.0000
vt 0.6179 0.8634 0.0000
# 89 texture coords

g Cylinder001
usemtl 01___Default
s off
f 1/1/1 2/2/2 3/3/3 4/4/4 
f 5/5/5 6/6/6 2/2/2 1/1/1 
f 7/7/7 8/8/8 6/6/6 5/5/5 
f 9/9/9 10/10/10 8/8/8 7/7/7 
f 11/11/11 12/12/12 10/10/10 9/9/9 
f 4/4/4 3/3/3 12/13/12 11/14/11 
f 13/15/13 14/16/14 15/17/15 16/18/16 
f 14/16/14 17/19/17 18/20/18 15/17/15 
f 17/19/17 19/21/19 20/22/20 18/20/18 
f 19/21/19 21/23/21 22/24/22 20/22/20 
f 21/23/21 23/25/23 24/26/24 22/24/22 
f 23/27/23 13/15/13 16/18/16 24/28/24 
f 16/18/16 15/17/15 25/29/25 26/30/26 
f 15/17/15 18/20/18 27/31/27 25/29/25 
f 18/20/18 20/22/20 28/32/28 27/31/27 
f 20/22/20 22/24/22 29/33/29 28/32/28 
f 22/24/22 24/26/24 30/34/30 29/33/29 
f 24/28/24 16/18/16 26/30/26 30/35/30 
f 26/30/26 25/29/25 31/36/31 32/37/32 
f 25/29/25 27/31/27 33/38/33 31/36/31 
f 27/31/27 28/32/28 34/39/34 33/38/33 
f 28/32/28 29/33/29 35/40/35 34/39/34 
f 29/33/29 30/34/30 36/41/36 35/40/35 
f 30/35/30 26/30/26 32/37/32 36/42/36 
f 31/36/31 37/43/37 38/44/38 32/37/32 
f 33/38/33 39/45/39 37/43/37 31/36/31 
f 34/39/34 40/46/40 39/45/39 33/38/33 
f 35/40/35 41/47/41 40/46/40 34/39/34 
f 36/41/36 42/48/42 41/47/41 35/40/35 
f 32/37/32 38/44/38 42/49/42 36/42/36 
f 9/50/43 7/51/43 5/52/43 4/53/43 
f 5/52/43 1/54/43 4/53/43 
f 11/55/43 9/50/43 4/53/43 
f 43/56/44 44/57/44 45/58/44 46/59/44 
f 45/58/44 47/60/44 46/59/44 
f 48/61/44 43/56/44 46/59/44 
f 49/62/45 50/63/46 51/64/47 52/65/48 
f 53/66/49 49/62/45 52/65/48 54/67/50 
f 55/68/51 53/66/49 54/67/50 56/69/52 
f 57/70/53 55/68/51 56/69/52 58/71/54 
f 59/72/55 57/70/53 58/71/54 60/73/56 
f 50/63/46 59/74/55 60/75/56 51/64/47 
f 43/76/57 48/77/58 50/63/46 49/62/45 
f 44/78/59 43/76/57 49/62/45 53/66/49 
f 45/79/60 44/78/59 53/66/49 55/68/51 
f 47/80/61 45/79/60 55/68/51 57/70/53 
f 46/81/62 47/80/61 57/70/53 59/72/55 
f 48/77/58 46/82/62 59/74/55 50/63/46 
f 61/83/63 62/84/64 38/44/38 37/43/37 
f 63/85/65 61/83/63 37/43/37 39/45/39 
f 64/86/66 63/85/65 39/45/39 40/46/40 
f 65/87/67 64/86/66 40/46/40 41/47/41 
f 66/88/68 65/87/67 41/47/41 42/48/42 
f 62/84/64 66/89/68 42/49/42 38/44/38 
f 52/65/48 51/64/47 62/84/64 61/83/63 
f 54/67/50 52/65/48 61/83/63 63/85/65 
f 56/69/52 54/67/50 63/85/65 64/86/66 
f 58/71/54 56/69/52 64/86/66 65/87/67 
f 60/73/56 58/71/54 65/87/67 66/88/68 
f 51/64/47 60/75/56 66/89/68 62/84/64 
f 14/16/14 13/15/13 3/3/3 2/2/2 
f 17/19/17 14/16/14 2/2/2 6/6/6 
f 19/21/19 17/19/17 6/6/6 8/8/8 
f 21/23/21 19/21/19 8/8/8 10/10/10 
f 23/25/23 21/23/21 10/10/10 12/12/12 
f 13/15/13 23/27/23 12/13/12 3/3/3 
# 62 polygons - 4 triangles

