# 3ds Max Wavefront OBJ Exporter v0.97b - (c)2007 guruware
# File Created: 26.11.2014 23:45:18

#
# object Object002
#

v  15.0167 6.0218 -36.1370
v  -0.2218 5.8471 -31.2144
v  36.2261 16.9584 27.8539
v  21.0958 16.8264 33.0467
v  14.8974 9.0968 -36.3984
v  -0.3412 8.9221 -31.4759
v  36.1001 20.2052 27.5778
v  20.9698 20.0733 32.7707
v  -33.6502 6.0777 -24.2276
v  -46.1785 6.8326 -14.2804
v  9.3714 11.7366 28.5113
v  -2.9581 12.5104 38.6746
v  -33.5653 9.1624 -24.3554
v  -46.0936 9.9172 -14.4082
v  9.4610 14.9936 28.3765
v  -2.8685 15.7674 38.5398
v  31.9533 5.9332 -0.1775
v  21.1212 6.8350 -11.9388
v  -17.8350 6.3512 46.5690
v  -28.8693 7.2492 35.0214
v  31.9314 9.0109 0.0791
v  21.0993 9.9127 -11.6822
v  -17.8582 9.6008 46.8399
v  -28.8925 10.4988 35.2924
v  47.1730 5.6421 35.8647
v  45.8291 3.6986 20.0251
v  -19.1855 21.1922 40.2255
v  -20.8142 19.3133 24.4228
v  47.6385 8.6675 35.4543
v  46.2945 6.7240 19.6147
v  -18.6941 24.3868 39.7922
v  -20.3227 22.5078 23.9895
v  -50.0000 0.0000 50.0000
v  50.0000 0.0000 50.0000
v  -50.0000 0.0000 -50.0000
v  50.0000 0.0000 -50.0000
v  -50.0000 6.0000 50.0000
v  50.0000 6.0000 50.0000
v  -50.0000 6.0000 -50.0000
v  50.0000 6.0000 -50.0000
# 40 vertices

vn -0.0603 0.9866 -0.1515
vn -0.0602 0.9866 -0.1515
vn -0.0605 0.9866 -0.1515
vn -0.0605 0.9866 -0.1515
vn -0.0606 0.9866 -0.1515
vn -0.0603 0.9866 -0.1515
vn 0.0595 -0.9871 0.1489
vn 0.0597 -0.9871 0.1489
vn 0.0597 -0.9871 0.1489
vn 0.0597 -0.9871 0.1489
vn 0.0594 -0.9871 0.1489
vn 0.0595 -0.9871 0.1489
vn -0.3057 -0.0982 -0.9471
vn -0.3057 -0.0982 -0.9471
vn -0.3057 -0.0982 -0.9471
vn -0.3057 -0.0982 -0.9471
vn -0.3057 -0.0982 -0.9471
vn -0.3057 -0.0982 -0.9471
vn -0.9486 -0.0099 0.3163
vn -0.9486 -0.0099 0.3163
vn -0.9486 -0.0099 0.3163
vn -0.9486 -0.0099 0.3163
vn -0.9486 -0.0099 0.3163
vn -0.9486 -0.0099 0.3163
vn 0.3216 0.0984 0.9418
vn 0.3216 0.0984 0.9418
vn 0.3216 0.0984 0.9418
vn 0.3216 0.0984 0.9418
vn 0.3216 0.0984 0.9418
vn 0.3216 0.0984 0.9418
vn 0.9487 0.0100 -0.3161
vn 0.9487 0.0099 -0.3161
vn 0.9487 0.0099 -0.3161
vn 0.9487 0.0099 -0.3161
vn 0.9487 0.0100 -0.3161
vn 0.9487 0.0100 -0.3161
vn -0.0148 0.9958 -0.0908
vn -0.0147 0.9958 -0.0908
vn -0.0150 0.9958 -0.0907
vn -0.0150 0.9958 -0.0907
vn -0.0150 0.9958 -0.0906
vn -0.0148 0.9958 -0.0908
vn 0.0131 -0.9960 0.0886
vn 0.0134 -0.9960 0.0885
vn 0.0133 -0.9960 0.0885
vn 0.0133 -0.9960 0.0885
vn 0.0131 -0.9960 0.0886
vn 0.0131 -0.9960 0.0886
vn -0.6007 -0.0270 -0.7990
vn -0.6007 -0.0270 -0.7990
vn -0.6007 -0.0270 -0.7990
vn -0.6007 -0.0270 -0.7990
vn -0.6007 -0.0270 -0.7990
vn -0.6007 -0.0270 -0.7990
vn -0.7568 0.0521 0.6515
vn -0.7568 0.0521 0.6515
vn -0.7568 0.0521 0.6515
vn -0.7568 0.0521 0.6515
vn -0.7568 0.0521 0.6515
vn -0.7568 0.0521 0.6515
vn 0.6143 0.0261 0.7887
vn 0.6143 0.0261 0.7887
vn 0.6143 0.0261 0.7887
vn 0.6143 0.0261 0.7887
vn 0.6143 0.0261 0.7887
vn 0.6143 0.0261 0.7887
vn 0.7570 -0.0520 -0.6513
vn 0.7570 -0.0520 -0.6513
vn 0.7570 -0.0520 -0.6513
vn 0.7570 -0.0520 -0.6513
vn 0.7570 -0.0520 -0.6513
vn 0.7570 -0.0520 -0.6513
vn 0.0506 0.9973 0.0530
vn 0.0506 0.9973 0.0531
vn 0.0505 0.9973 0.0528
vn 0.0505 0.9973 0.0528
vn 0.0504 0.9973 0.0528
vn 0.0506 0.9973 0.0530
vn -0.0488 -0.9973 -0.0548
vn -0.0487 -0.9973 -0.0546
vn -0.0487 -0.9973 -0.0546
vn -0.0487 -0.9973 -0.0546
vn -0.0488 -0.9973 -0.0549
vn -0.0488 -0.9973 -0.0548
vn 0.7146 0.0547 -0.6974
vn 0.7146 0.0547 -0.6974
vn 0.7146 0.0547 -0.6974
vn 0.7146 0.0547 -0.6974
vn 0.7146 0.0547 -0.6974
vn 0.7146 0.0547 -0.6974
vn -0.6604 0.0397 -0.7499
vn -0.6604 0.0397 -0.7499
vn -0.6604 0.0397 -0.7499
vn -0.6604 0.0397 -0.7499
vn -0.6604 0.0397 -0.7499
vn -0.6604 0.0397 -0.7499
vn -0.7009 -0.0554 0.7111
vn -0.7009 -0.0554 0.7111
vn -0.7009 -0.0554 0.7111
vn -0.7009 -0.0554 0.7111
vn -0.7009 -0.0554 0.7111
vn -0.7009 -0.0554 0.7111
vn 0.6602 -0.0397 0.7501
vn 0.6602 -0.0397 0.7501
vn 0.6602 -0.0397 0.7501
vn 0.6602 -0.0397 0.7501
vn 0.6602 -0.0397 0.7501
vn 0.6602 -0.0397 0.7501
vn 0.2224 0.9664 -0.1288
vn 0.2224 0.9664 -0.1288
vn 0.2224 0.9664 -0.1291
vn 0.2224 0.9664 -0.1291
vn 0.2224 0.9664 -0.1291
vn 0.2224 0.9664 -0.1288
vn -0.2199 -0.9670 0.1287
vn -0.2200 -0.9669 0.1290
vn -0.2200 -0.9669 0.1290
vn -0.2200 -0.9669 0.1290
vn -0.2199 -0.9670 0.1287
vn -0.2199 -0.9670 0.1287
vn 0.9867 -0.1562 -0.0444
vn 0.9867 -0.1562 -0.0444
vn 0.9867 -0.1562 -0.0444
vn 0.9867 -0.1562 -0.0444
vn 0.9867 -0.1562 -0.0444
vn 0.9867 -0.1562 -0.0444
vn -0.1116 -0.1233 -0.9861
vn -0.1116 -0.1233 -0.9861
vn -0.1116 -0.1233 -0.9861
vn -0.1116 -0.1233 -0.9861
vn -0.1116 -0.1233 -0.9861
vn -0.1116 -0.1233 -0.9861
vn -0.9852 0.1587 0.0641
vn -0.9852 0.1587 0.0641
vn -0.9852 0.1587 0.0641
vn -0.9852 0.1587 0.0641
vn -0.9852 0.1587 0.0641
vn -0.9852 0.1587 0.0641
vn 0.1114 0.1234 0.9861
vn 0.1114 0.1234 0.9861
vn 0.1114 0.1234 0.9861
vn 0.1114 0.1234 0.9861
vn 0.1114 0.1234 0.9861
vn 0.1114 0.1234 0.9861
vn 0.0046 0.9999 0.0140
vn 0.0046 0.9999 0.0140
vn 0.0046 0.9999 0.0140
vn 0.0046 0.9999 0.0140
vn 0.0046 0.9999 0.0140
vn 0.0046 0.9999 0.0140
vn 0.0251 0.0129 0.9996
vn 0.0251 0.0129 0.9996
vn 0.0251 0.0129 0.9996
vn 0.0251 0.0129 0.9996
vn 0.0251 0.0129 0.9996
vn 0.0251 0.0129 0.9996
vn 0.9996 0.0046 0.0269
vn 0.9996 0.0046 0.0269
vn 0.9996 0.0046 0.0269
vn 0.9996 0.0046 0.0269
vn 0.9996 0.0046 0.0269
vn 0.9996 0.0046 0.0269
vn -0.0251 -0.0129 -0.9996
vn -0.0251 -0.0129 -0.9996
vn -0.0251 -0.0129 -0.9996
vn -0.0251 -0.0129 -0.9996
vn -0.0251 -0.0129 -0.9996
vn -0.0251 -0.0129 -0.9996
vn -0.9996 -0.0046 -0.0269
vn -0.9996 -0.0046 -0.0269
vn -0.9996 -0.0046 -0.0269
vn -0.9996 -0.0046 -0.0269
vn -0.9996 -0.0046 -0.0269
vn -0.9996 -0.0046 -0.0269
# 174 vertex normals

vt 0.3303 0.9497 0.0000
vt 0.5404 0.9501 0.0000
vt 0.5435 0.0578 0.0000
vt 0.3334 0.0568 0.0000
vt 0.2897 0.9498 0.0000
vt 0.2928 0.0564 0.0000
vt 0.0860 0.0557 0.0000
vt 0.0822 0.9490 0.0000
vt 0.0835 0.9884 0.0000
vt 0.2881 0.9892 0.0000
vt 0.0329 0.0557 0.0000
vt 0.0291 0.9493 0.0000
vt 0.2912 0.0173 0.0000
vt 0.0878 0.0165 0.0000
vt 0.3303 0.9497 0.0000
vt 0.5404 0.9501 0.0000
vt 0.5435 0.0578 0.0000
vt 0.3334 0.0568 0.0000
vt 0.2897 0.9498 0.0000
vt 0.2928 0.0564 0.0000
vt 0.0860 0.0557 0.0000
vt 0.0822 0.9490 0.0000
vt 0.0835 0.9884 0.0000
vt 0.2881 0.9892 0.0000
vt 0.0329 0.0557 0.0000
vt 0.0291 0.9493 0.0000
vt 0.2912 0.0173 0.0000
vt 0.0878 0.0165 0.0000
vt 0.3303 0.9497 0.0000
vt 0.5404 0.9501 0.0000
vt 0.5435 0.0578 0.0000
vt 0.3334 0.0568 0.0000
vt 0.2897 0.9498 0.0000
vt 0.2928 0.0564 0.0000
vt 0.0860 0.0557 0.0000
vt 0.0822 0.9490 0.0000
vt 0.0835 0.9884 0.0000
vt 0.2881 0.9892 0.0000
vt 0.0329 0.0557 0.0000
vt 0.0291 0.9493 0.0000
vt 0.2912 0.0173 0.0000
vt 0.0878 0.0165 0.0000
vt 0.3303 0.9497 0.0000
vt 0.5404 0.9501 0.0000
vt 0.5435 0.0578 0.0000
vt 0.3334 0.0568 0.0000
vt 0.2897 0.9498 0.0000
vt 0.2928 0.0564 0.0000
vt 0.0860 0.0557 0.0000
vt 0.0822 0.9490 0.0000
vt 0.0835 0.9884 0.0000
vt 0.2881 0.9892 0.0000
vt 0.0329 0.0557 0.0000
vt 0.0291 0.9493 0.0000
vt 0.2912 0.0173 0.0000
vt 0.0878 0.0165 0.0000
vt 0.5858 0.3321 0.0000
vt 0.9428 0.3330 0.0000
vt 0.9419 0.6899 0.0000
vt 0.5849 0.6890 0.0000
vt 0.5543 0.3004 0.0000
vt 0.9744 0.3015 0.0000
vt 0.9734 0.7215 0.0000
vt 0.5532 0.7204 0.0000
# 64 texture coords

g Object002
s 4
f 5/1/1 6/2/2 8/3/3 
f 8/3/4 7/4/5 5/1/6 
s 2
f 1/5/7 3/6/8 4/7/9 
f 4/7/10 2/8/11 1/5/12 
s 8
f 1/5/13 2/8/14 6/9/15 
f 6/9/16 5/10/17 1/5/18 
s 16
f 2/8/19 4/7/20 8/11/21 
f 8/11/22 6/12/23 2/8/24 
s 32
f 4/7/25 3/6/26 7/13/27 
f 7/13/28 8/14/29 4/7/30 
s 64
f 3/6/31 1/5/32 5/1/33 
f 5/1/34 7/4/35 3/6/36 
s 4
f 13/15/37 14/16/38 16/17/39 
f 16/17/40 15/18/41 13/15/42 
s 2
f 9/19/43 11/20/44 12/21/45 
f 12/21/46 10/22/47 9/19/48 
s 8
f 9/19/49 10/22/50 14/23/51 
f 14/23/52 13/24/53 9/19/54 
s 16
f 10/22/55 12/21/56 16/25/57 
f 16/25/58 14/26/59 10/22/60 
s 32
f 12/21/61 11/20/62 15/27/63 
f 15/27/64 16/28/65 12/21/66 
s 64
f 11/20/67 9/19/68 13/15/69 
f 13/15/70 15/18/71 11/20/72 
s 4
f 21/29/73 22/30/74 24/31/75 
f 24/31/76 23/32/77 21/29/78 
s 2
f 17/33/79 19/34/80 20/35/81 
f 20/35/82 18/36/83 17/33/84 
s 8
f 17/33/85 18/36/86 22/37/87 
f 22/37/88 21/38/89 17/33/90 
s 16
f 18/36/91 20/35/92 24/39/93 
f 24/39/94 22/40/95 18/36/96 
s 32
f 20/35/97 19/34/98 23/41/99 
f 23/41/100 24/42/101 20/35/102 
s 64
f 19/34/103 17/33/104 21/29/105 
f 21/29/106 23/32/107 19/34/108 
s 4
f 29/43/109 30/44/110 32/45/111 
f 32/45/112 31/46/113 29/43/114 
s 2
f 25/47/115 27/48/116 28/49/117 
f 28/49/118 26/50/119 25/47/120 
s 8
f 25/47/121 26/50/122 30/51/123 
f 30/51/124 29/52/125 25/47/126 
s 16
f 26/50/127 28/49/128 32/53/129 
f 32/53/130 30/54/131 26/50/132 
s 32
f 28/49/133 27/48/134 31/55/135 
f 31/55/136 32/56/137 28/49/138 
s 64
f 27/48/139 25/47/140 29/43/141 
f 29/43/142 31/46/143 27/48/144 
s 4
f 37/57/145 38/58/146 40/59/147 
f 40/59/148 39/60/149 37/57/150 
s 8
f 33/61/151 34/62/152 38/58/153 
f 38/58/154 37/57/155 33/61/156 
s 16
f 34/62/157 36/63/158 40/59/159 
f 40/59/160 38/58/161 34/62/162 
s 32
f 36/63/163 35/64/164 39/60/165 
f 39/60/166 40/59/167 36/63/168 
s 64
f 35/64/169 33/61/170 37/57/171 
f 37/57/172 39/60/173 35/64/174 
# 58 faces

